<svg id="Layer_1" data-name="Layer 1" xmlns="http://www.w3.org/2000/svg" xmlns:xlink="http://www.w3.org/1999/xlink" viewBox="0 0 1200 500"><defs><style>.cls-1{fill:#0c6;}.cls-2{fill:#fff;}.cls-3{fill:url(#linear-gradient);}.cls-4{fill:url(#linear-gradient-2);}.cls-5{fill:url(#linear-gradient-3);}</style><linearGradient id="linear-gradient" x1="577.77" y1="2.29" x2="573.41" y2="311.8" gradientUnits="userSpaceOnUse"><stop offset="0" stop-color="#fff"/><stop offset="1" stop-color="#0c6"/></linearGradient><linearGradient id="linear-gradient-2" x1="804.96" y1="5.49" x2="800.6" y2="315" xlink:href="#linear-gradient"/><linearGradient id="linear-gradient-3" x1="1032.17" y1="8.69" x2="1027.81" y2="318.2" xlink:href="#linear-gradient"/></defs><path class="cls-1" d="M103.17,152.21C89.45,159.32,81,172.48,81,186.71v22.85l68.62,37,89.5-53.31V79.2Z"/><path class="cls-2" d="M81,224.32v90.27c0,12.94,8.45,26.09,22.17,33.21l136,73v-108Z"/><path class="cls-1" d="M345.23,262.78l-89.71,49.57V420.8l135.94-73c13.72-7.12,22.17-20.27,22.17-34.51V305Z"/><path class="cls-2" d="M391.46,152.21l-135.94-73V190.47l158.11,97V186.71C413.63,172.48,405.18,159.32,391.46,152.21Z"/><path class="cls-1" d="M557.18,340.82v79.31H541.7V374L526.56,402.2H516.08L500.83,374v46.11H485.35V340.82H500.6l20.72,41.1,20.6-41.1Z"/><path class="cls-1" d="M603.52,340.16q12.69,0,21.27,8.35a22.64,22.64,0,0,1,6.74,11.92q1.28,6.57,1.28,20.05t-1.28,20a22.6,22.6,0,0,1-6.74,11.92,29.3,29.3,0,0,1-21.27,8.36q-12.71,0-21.28-8.36a23.17,23.17,0,0,1-6.73-12q-1.29-6.53-1.29-20t1.29-20a23.2,23.2,0,0,1,6.73-12Q590.82,340.16,603.52,340.16Zm0,13.81a12.48,12.48,0,0,0-9.92,4.23,13.4,13.4,0,0,0-3.11,6.85q-.78,4.29-.78,15.43t.78,15.31a13.4,13.4,0,0,0,3.11,6.85,13.5,13.5,0,0,0,19.83,0,13.49,13.49,0,0,0,3.12-6.85q.78-4.29.78-15.31t-.78-15.43a13.49,13.49,0,0,0-3.12-6.85A12.47,12.47,0,0,0,603.52,354Z"/><path class="cls-1" d="M703.87,340.82,677.7,420.13H666l-26.17-79.31h16l16,51.45,15.81-51.45Z"/><path class="cls-1" d="M730.15,340.82v79.31H714.67V340.82Z"/><path class="cls-1" d="M802.22,340.82v13.82H765.46v18.6h31.41v13.81H765.46v19.27h36.76v13.81H750V340.82Z"/><path class="cls-1" d="M917.49,340.82v79.31H902V374L886.86,402.2H876.39L861.13,374v46.11H845.65V340.82h15.26l20.72,41.1,20.6-41.1Z"/><path class="cls-1" d="M969.4,340.82l29.07,79.31h-15.3l-5.18-14H949.46l-4.81,14H928.41l28.64-79.31Zm-5.91,23.51L953,393.06h20.18Z"/><path class="cls-1" d="M1052.93,340.82v13.82h-20.72v65.49h-15.48V354.64H996V340.82Z"/><path class="cls-1" d="M1119,340.82v13.82h-36.76v18.6h31.41v13.81h-31.41v19.27H1119v13.81h-52.24V340.82Z"/><path class="cls-2" d="M485.33,388.78v31.37h15.49V388.78Zm23.49,0,7.24,13.45h10.5l7.24-13.45Zm32.91,0v31.37h15.44V388.78Z"/><path class="cls-2" d="M617.22,388.78a47.6,47.6,0,0,1-.7,7,13.27,13.27,0,0,1-3.08,6.85,13.47,13.47,0,0,1-19.84,0,13.9,13.9,0,0,1-3.14-6.85,49.33,49.33,0,0,1-.64-7h-15.5a78.52,78.52,0,0,0,1.16,11.72,23.69,23.69,0,0,0,6.78,12,31.3,31.3,0,0,0,42.52,0,22.4,22.4,0,0,0,6.72-12,77.41,77.41,0,0,0,1.15-11.72Z"/><path class="cls-2" d="M673,388.78l-1.09,3.52-1.09-3.52H655.64L666,420.15h11.72L688,388.78Z"/><path class="cls-2" d="M714.67,388.78v31.37h15.5V388.78Z"/><path class="cls-2" d="M765.44,406.33V388.78H750v31.37H802.2V406.33Z"/><path class="cls-2" d="M845.67,388.78v31.37h15.49V388.78Zm23.5,0,7.23,13.45h10.44l7.23-13.45Zm32.84,0v31.37h15.5V388.78Z"/><path class="cls-2" d="M987,388.78H971.74l1.47,4.29H953l1.54-4.29H939.73l-11.34,31.37h16.26l4.81-14.08H978l5.19,14.08h15.24Z"/><path class="cls-2" d="M1016.75,388.78v31.37h15.49V388.78Z"/><path class="cls-2" d="M1082.25,406.33V388.78h-15.5v31.37H1119V406.33Z"/><path class="cls-3" d="M485.35,317.41V79.2h58.54v91.67h62.23V79.2h58.54V317.41H606.12V223.06H543.89v94.35Z"/><path class="cls-4" d="M866.9,295.66q-26.28,23.76-64.41,23.75t-64.06-23.75q-25.93-23.75-25.93-61.89V79.2h58.55V232.43q0,16.4,8.36,25.59t23.08,9.2q14.73,0,23.42-9.2t8.7-25.59V79.2h58.55V233.77Q893.16,271.9,866.9,295.66Z"/><path class="cls-5" d="M941,317.41V79.2h98.69q36.46,0,56.2,18.74t19.74,50.18q0,29.44-26.09,47.17c3.56,2.24,6.58,4.3,9,6.19a68.26,68.26,0,0,1,9,9,44.05,44.05,0,0,1,8.37,15.55,68.71,68.71,0,0,1,3,21.08q0,33.12-20.75,51.69t-53.53,18.57Zm58.54-146.54H1036q11,0,16.06-5.69a22.16,22.16,0,0,0,0-28.09q-5-5.7-16.06-5.69H999.54Zm0,94.34H1039q11,0,16.23-6.19a22.4,22.4,0,0,0,5.18-14.88q0-9-5.18-15.06t-16.23-6H999.54Z"/></svg>