<svg id="Layer_1" data-name="Layer 1" xmlns="http://www.w3.org/2000/svg" xmlns:xlink="http://www.w3.org/1999/xlink" viewBox="0 0 250 250"><defs><style>.cls-1{fill:#0c6;}.cls-2{fill:url(#linear-gradient);}.cls-3{fill:url(#linear-gradient-2);}</style><linearGradient id="linear-gradient" x1="11.07" y1="174.71" x2="119.38" y2="174.71" gradientUnits="userSpaceOnUse"><stop offset="0" stop-color="#003"/><stop offset="1" stop-color="#033"/></linearGradient><linearGradient id="linear-gradient-2" x1="130.62" y1="79.35" x2="238.93" y2="79.35" xlink:href="#linear-gradient"/></defs><path class="cls-1" d="M26.26,58c-9.4,4.87-15.19,13.88-15.19,23.64V97.3l47,25.36,61.3-36.52V8Z"/><path class="cls-2" d="M11.07,107.41v61.83c0,8.87,5.79,17.88,15.19,22.75l93.12,50V168Z"/><path class="cls-1" d="M192.07,133.75l-61.45,34V242l93.13-50c9.39-4.87,15.18-13.88,15.18-23.63v-5.71Z"/><path class="cls-3" d="M223.75,58,130.62,8V84.22L238.93,150.7v-69C238.93,71.89,233.14,62.88,223.75,58Z"/></svg>