<svg id="Layer_1" data-name="Layer 1" xmlns="http://www.w3.org/2000/svg" viewBox="0 0 250 150"><defs><style>.cls-1{fill:#0c6;}.cls-2{fill:#fff;}</style></defs><path class="cls-1" d="M14.91,53.33A8.71,8.71,0,0,0,10,61V66l15.2,8.2L45,62.43V37.15Z"/><path class="cls-2" d="M10,69.31v20a8.63,8.63,0,0,0,4.91,7.36L45,112.85V88.92Z"/><path class="cls-1" d="M68.55,77.83l-19.88,11v24L78.79,96.67A8.72,8.72,0,0,0,83.71,89V87.18Z"/><path class="cls-2" d="M78.79,53.33,48.67,37.15V61.81l35,21.5V61A8.72,8.72,0,0,0,78.79,53.33Z"/><path class="cls-2" d="M115.51,95.13V112.7h-3.43V102.48l-3.35,6.24h-2.32L103,102.48V112.7H99.6V95.13H103l4.59,9.1,4.56-9.1Z"/><path class="cls-2" d="M125.78,95a6.48,6.48,0,0,1,4.72,1.85A5.05,5.05,0,0,1,132,99.47a25.29,25.29,0,0,1,.28,4.44,25.29,25.29,0,0,1-.28,4.44A5,5,0,0,1,130.5,111a6.91,6.91,0,0,1-9.43,0,5.11,5.11,0,0,1-1.5-2.65,26.11,26.11,0,0,1-.28-4.43,26.11,26.11,0,0,1,.28-4.43,5.11,5.11,0,0,1,1.5-2.65A6.45,6.45,0,0,1,125.78,95Zm0,3.06a2.77,2.77,0,0,0-2.2.94,3,3,0,0,0-.69,1.51,23.38,23.38,0,0,0-.17,3.42,22.89,22.89,0,0,0,.17,3.39,3.06,3.06,0,0,0,.69,1.52,3,3,0,0,0,4.4,0,3.06,3.06,0,0,0,.69-1.52,22.89,22.89,0,0,0,.17-3.39,23.38,23.38,0,0,0-.17-3.42A3,3,0,0,0,128,99,2.75,2.75,0,0,0,125.78,98Z"/><path class="cls-2" d="M148,95.13l-5.8,17.57h-2.59l-5.8-17.57h3.55l3.56,11.4,3.5-11.4Z"/><path class="cls-2" d="M153.84,95.13V112.7h-3.43V95.13Z"/><path class="cls-2" d="M169.81,95.13v3.06h-8.14v4.12h7v3.06h-7v4.27h8.14v3.06H158.24V95.13Z"/><path class="cls-2" d="M195.35,95.13V112.7h-3.43V102.48l-3.35,6.24h-2.32l-3.38-6.24V112.7h-3.43V95.13h3.38l4.59,9.1,4.56-9.1Z"/><path class="cls-2" d="M206.86,95.13l6.44,17.57h-3.39l-1.15-3.11h-6.32l-1.07,3.11h-3.6l6.35-17.57Zm-1.31,5.2-2.33,6.37h4.47Z"/><path class="cls-2" d="M225.36,95.13v3.06h-4.59V112.7h-3.43V98.19h-4.59V95.13Z"/><path class="cls-2" d="M240,95.13v3.06h-8.14v4.12h7v3.06h-7v4.27H240v3.06H228.43V95.13Z"/><path class="cls-1" d="M99.6,89.94V37.15h13V57.47h13.79V37.15h13V89.94h-13V69H112.57V89.94Z"/><path class="cls-1" d="M184.14,85.12a20.48,20.48,0,0,1-14.27,5.26,20.22,20.22,0,0,1-14.19-5.26,17.74,17.74,0,0,1-5.75-13.72V37.15h13v34a8.11,8.11,0,0,0,1.86,5.67,6.55,6.55,0,0,0,5.11,2,6.79,6.79,0,0,0,5.19-2A7.91,7.91,0,0,0,177,71.11v-34h13V71.4A17.63,17.63,0,0,1,184.14,85.12Z"/><path class="cls-1" d="M200.56,89.94V37.15h21.87q8.08,0,12.45,4.16t4.38,11.12a12.1,12.1,0,0,1-5.78,10.45c.79.49,1.45.95,2,1.37a15.44,15.44,0,0,1,2,2,9.71,9.71,0,0,1,1.85,3.45,15,15,0,0,1,.67,4.67q0,7.34-4.6,11.45t-11.86,4.12Zm13-32.47h8.08a4.51,4.51,0,0,0,3.56-1.26,4.89,4.89,0,0,0,0-6.23,4.51,4.51,0,0,0-3.56-1.26h-8.08Zm0,20.9h8.75a4.46,4.46,0,0,0,3.6-1.37,5.35,5.35,0,0,0,0-6.63,4.51,4.51,0,0,0-3.6-1.34h-8.75Z"/></svg>