<?xml version="1.0" encoding="utf-8"?>
<svg id="Layer_1" data-name="Layer 1" viewBox="0 0 250 150" xmlns="http://www.w3.org/2000/svg" xmlns:xlink="http://www.w3.org/1999/xlink">
  <defs>
    <style>.cls-1{fill:#0c6;}.cls-2{fill:url(#linear-gradient);}.cls-3{fill:url(#linear-gradient-2);}.cls-4{fill:url(#linear-gradient-3);}.cls-5{fill:url(#linear-gradient-4);}.cls-6{fill:url(#linear-gradient-5);}.cls-7{fill:url(#linear-gradient-6);}.cls-8{fill:url(#linear-gradient-7);}.cls-9{fill:url(#linear-gradient-8);}.cls-10{fill:url(#linear-gradient-9);}.cls-11{fill:url(#linear-gradient-10);}.cls-12{fill:url(#linear-gradient-11);}.cls-13{fill:url(#linear-gradient-12);}.cls-14{fill:url(#linear-gradient-13);}.cls-15{fill:url(#linear-gradient-14);}</style>
    <linearGradient id="linear-gradient" x1="10" y1="91.08" x2="45.04" y2="91.08" gradientUnits="userSpaceOnUse">
      <stop offset="0" stop-color="#003"/>
      <stop offset="1" stop-color="#033"/>
    </linearGradient>
    <linearGradient id="linear-gradient-2" x1="48.67" y1="60.23" x2="83.7" y2="60.23" xlink:href="#linear-gradient"/>
    <linearGradient id="linear-gradient-12" x1="120.07" y1="20.11" x2="119.11" y2="88.69" gradientUnits="userSpaceOnUse">
      <stop offset="0" stop-color="#003"/>
      <stop offset="1" stop-color="#0c6"/>
    </linearGradient>
    <linearGradient id="linear-gradient-13" x1="170.42" y1="20.82" x2="169.45" y2="89.4" xlink:href="#linear-gradient-12"/>
    <linearGradient id="linear-gradient-14" x1="220.76" y1="21.53" x2="219.79" y2="90.11" xlink:href="#linear-gradient-12"/>
  </defs>
  <path class="cls-1" d="M14.91,53.33A8.71,8.71,0,0,0,10,61V66l15.2,8.2L45,62.43V37.16Z"/>
  <path class="cls-2" d="M10,69.31v20a8.63,8.63,0,0,0,4.91,7.36L45,112.84V88.92Z"/>
  <path class="cls-1" d="M68.55,77.83l-19.88,11v24L78.79,96.67A8.71,8.71,0,0,0,83.7,89V87.18Z"/>
  <path class="cls-3" d="M78.79,53.33,48.67,37.16V61.81l35,21.5V61A8.71,8.71,0,0,0,78.79,53.33Z"/>
  <path class="cls-1" d="M115.51,95.12V112.7h-3.43V102.48l-3.35,6.24h-2.32L103,102.48V112.7H99.59V95.12H103l4.59,9.11,4.56-9.11Z" style="fill: rgb(0, 34, 51);"/>
  <path class="cls-1" d="M125.78,95a6.45,6.45,0,0,1,4.71,1.85,5,5,0,0,1,1.5,2.64,25.29,25.29,0,0,1,.28,4.44,25.29,25.29,0,0,1-.28,4.44,5,5,0,0,1-1.5,2.64,6.92,6.92,0,0,1-9.42,0,5.11,5.11,0,0,1-1.5-2.65,25.09,25.09,0,0,1-.28-4.43,25.09,25.09,0,0,1,.28-4.43,5.11,5.11,0,0,1,1.5-2.65A6.44,6.44,0,0,1,125.78,95Zm0,3.06a2.77,2.77,0,0,0-2.2.94,3,3,0,0,0-.69,1.51,23.38,23.38,0,0,0-.17,3.42,22.89,22.89,0,0,0,.17,3.39,3.06,3.06,0,0,0,.69,1.52,3,3,0,0,0,4.4,0,3.06,3.06,0,0,0,.69-1.52,22.89,22.89,0,0,0,.17-3.39,23.38,23.38,0,0,0-.17-3.42A3,3,0,0,0,128,99,2.77,2.77,0,0,0,125.78,98Z" style="fill: rgb(0, 34, 51);"/>
  <path class="cls-1" d="M148,95.12l-5.8,17.58h-2.6l-5.8-17.58h3.56l3.55,11.41,3.51-11.41Z" style="fill: rgb(0, 34, 51);"/>
  <path class="cls-1" d="M153.84,95.12V112.7h-3.43V95.12Z" style="fill: rgb(0, 34, 51);"/>
  <path class="cls-1" d="M169.81,95.12v3.07h-8.15v4.12h7v3.06h-7v4.27h8.15v3.06H158.23V95.12Z" style="fill: rgb(0, 34, 51);"/>
  <path class="cls-1" d="M195.35,95.12V112.7h-3.43V102.48l-3.36,6.24h-2.32l-3.38-6.24V112.7h-3.43V95.12h3.38l4.59,9.11L192,95.12Z" style="fill: rgb(0, 34, 51);"/>
  <path class="cls-1" d="M206.85,95.12l6.44,17.58H209.9l-1.15-3.11h-6.32l-1.06,3.11h-3.6l6.35-17.58Zm-1.31,5.21-2.32,6.37h4.47Z" style="fill: rgb(0, 34, 51);"/>
  <path class="cls-1" d="M225.36,95.12v3.07h-4.59V112.7h-3.43V98.19h-4.59V95.12Z" style="fill: rgb(0, 21, 51);"/>
  <path class="cls-1" d="M240,95.12v3.07h-8.15v4.12h7v3.06h-7v4.27H240v3.06H228.42V95.12Z" style="paint-order: fill; stroke-width: 0px; fill: rgb(0, 41, 51);"/>
  <path class="cls-13" d="M99.59,89.94V37.16h13V57.47h13.79V37.16h13V89.94h-13V69H112.57V89.94Z"/>
  <path class="cls-14" d="M184.14,85.12a20.5,20.5,0,0,1-14.27,5.26,20.24,20.24,0,0,1-14.2-5.26,17.74,17.74,0,0,1-5.74-13.72V37.16h13v34a8.15,8.15,0,0,0,1.85,5.67,6.57,6.57,0,0,0,5.12,2,6.82,6.82,0,0,0,5.19-2A8,8,0,0,0,177,71.11V37.16h13V71.4A17.63,17.63,0,0,1,184.14,85.12Z"/>
  <path class="cls-15" d="M200.56,89.94V37.16h21.87q8.07,0,12.45,4.15t4.37,11.12a12.08,12.08,0,0,1-5.78,10.45,23.33,23.33,0,0,1,2,1.37,14.84,14.84,0,0,1,2,2,10,10,0,0,1,1.86,3.45,15.35,15.35,0,0,1,.67,4.67q0,7.34-4.6,11.45a17.14,17.14,0,0,1-11.86,4.12Zm13-32.47h8.08a4.4,4.4,0,1,0,0-8.75h-8.08Zm0,20.9h8.75A4.42,4.42,0,0,0,225.87,77a5.35,5.35,0,0,0,0-6.63A4.48,4.48,0,0,0,222.28,69h-8.75Z"/>
</svg>